<svg width="160" height="48" viewBox="0 0 160 48" fill="none" xmlns="http://www.w3.org/2000/svg">
<path d="M78.0509 2.325C71.6347 3.45 66.4367 5.325 55.7971 10.275C46.2133 14.775 44.6702 15.225 35.4925 16.575C21.6042 18.6 13.0763 20.25 9.50269 21.525C5.1169 23.175 1.62451 29.55 1.62451 35.925C1.62451 39.9 1.86817 40.65 3.57375 41.625C4.71081 42.3 6.74126 42.75 8.28441 42.6L10.9646 42.375L11.4519 37.35C11.7768 33.45 12.4265 31.725 14.1321 29.625C21.6042 20.625 35.1677 21.675 40.6905 31.725C42.0712 34.125 42.3149 35.775 42.0712 39.525L41.7463 44.25H77.2387H112.812L112.731 39.15C112.731 33.225 113.868 30.6 118.092 27.15C122.071 23.925 126.863 22.8 131.574 23.925C139.208 25.8 143.675 31.275 143.757 38.85V42.9L148.061 42.375C155.777 41.55 156.833 41.175 157.645 39.225C158.538 36.9 158.619 32.475 157.645 31.95C157.32 31.725 156.751 29.1 156.427 26.1C156.102 23.1 155.696 20.025 155.452 19.35C154.965 17.85 150.173 16.35 138.559 14.25C132.873 13.2 129.3 12 125.97 10.2C123.452 8.775 118.335 6.225 114.599 4.575L107.696 1.5L94.7007 1.575C87.4722 1.65 80.0002 1.95 78.0509 2.325ZM94.1321 6.9C94.1321 8.25 93.6448 11.25 93.1575 13.5L92.1829 17.625L86.0915 18.075C82.7616 18.375 75.858 18.6 70.9037 18.675L61.726 18.75V16.875C61.726 15.375 61.3199 15 59.7768 15C58.6397 15 57.5839 14.7 57.3403 14.325C56.3656 12.9 72.5281 5.925 78.7819 5.025C79.9189 4.875 83.8174 4.65 87.5535 4.575L94.2133 4.5L94.1321 6.9ZM109.564 8.325C115.655 12.225 118.173 15.375 116.224 16.425C114.68 17.325 98.1118 18.15 97.2996 17.4C96.6499 16.8 97.8682 6.525 98.7616 5.175C99.8174 3.525 104.041 4.725 109.564 8.325Z" fill="#484B4B"/>
<path d="M21.1979 28.2751C13.8071 31.6501 13.3197 43.3501 20.467 46.9501C23.2284 48.3751 30.538 48.2251 33.3807 46.7251C36.7106 44.9251 38.4162 41.1001 38.0101 36.6001C37.1979 29.1001 28.67 24.9001 21.1979 28.2751Z" fill="#484B4B"/>
<path d="M122.802 28.275C115.736 31.425 114.437 40.8 120.366 45.9C122.559 47.775 123.452 48 128 48C132.792 48 133.442 47.775 136.203 45.525C138.721 43.35 139.208 42.45 139.452 38.925C139.777 35.55 139.533 34.425 137.909 32.25C134.417 27.45 128.163 25.8 122.802 28.275Z" fill="#484B4B"/>
</svg>
