<svg width="164" height="62" viewBox="0 0 164 62" fill="none" xmlns="http://www.w3.org/2000/svg">
<g clip-path="url(#clip0_79_148)">
<path d="M48.4583 3.06243C41.783 4.4817 36.8382 8.59014 31.399 17.3299L28.7619 21.5877L17.2242 25.0239C4.03824 29.0576 4.12065 28.9082 4.12065 37.2745C4.12065 40.9347 3.79101 42.6528 2.88447 43.3251C1.15382 44.595 1.23623 52.1395 2.96688 54.3805C3.95583 55.6504 5.02719 56.0239 7.91161 56.0239H11.5377V52.6624C11.5377 48.554 13.3508 44.4456 16.2352 41.607C22.2513 36.0046 34.3659 37.4239 39.393 44.2962C41.2885 46.9106 41.6181 48.0311 41.5357 52.3636C41.4533 55.501 41.783 57.5179 42.3599 57.6672C42.8543 57.8166 60.1609 57.8166 80.8463 57.6672L118.344 57.3685L118.014 53.0359C117.684 49.301 118.014 48.1058 119.827 45.2672C122.712 40.7853 126.008 38.8432 131.365 38.3203C137.216 37.7974 142.573 39.9636 145.705 44.2962C147.518 46.7612 147.93 48.1805 147.93 52.0648V56.7709L151.638 56.3227C159.055 55.4263 161.528 54.5299 162.352 52.5877C163.341 50.3468 163.423 45.2672 162.599 44.5203C162.187 44.2215 161.528 34.9588 161.116 24.0528C160.621 13.0721 159.962 3.66002 159.55 3.13713C159.138 2.46484 147.023 2.24074 105.24 2.31544C75.6543 2.39014 50.1066 2.68893 48.4583 3.06243ZM61.3146 6.64797C61.9739 7.54435 60.1609 20.3925 59.2543 21.2142C58.595 21.8865 44.1729 24.5757 41.0413 24.6504C39.9699 24.6504 39.5578 24.0528 39.5578 22.7829C39.5578 21.2142 39.1458 20.9154 37.0855 20.9154C35.7669 20.9154 34.6131 20.5419 34.6131 20.0938C34.6131 18.7492 40.0523 11.0552 42.2774 9.11303C43.3488 8.14195 45.3267 7.09616 46.6453 6.72267C49.7769 5.90098 60.7377 5.82628 61.3146 6.64797Z" fill="#484B4B"/>
<path d="M23.4052 41.9058C14.7519 44.1467 12.5268 54.2311 19.367 59.6841C24.7238 63.9419 33.4594 62.448 36.6735 56.7708C41.2062 48.7781 32.8001 39.366 23.4052 41.9058Z" fill="#484B4B"/>
<path d="M127.904 42.5783C125.184 43.6988 124.03 44.7446 122.712 47.4337C120.487 51.9904 121.228 55.5012 125.267 59.1614C128.069 61.7012 128.81 62 132.684 62C141.831 62 146.941 54.4554 142.738 47.1349C139.854 41.906 133.837 40.0386 127.904 42.5783Z" fill="#484B4B"/>
</g>
<defs>
<clipPath id="clip0_79_148">
<rect width="164" height="62" fill="white"/>
</clipPath>
</defs>
</svg>
