<svg width="165" height="74" viewBox="0 0 165 74" fill="none" xmlns="http://www.w3.org/2000/svg">
<path d="M18.5056 5.44392C15.315 7.91058 8.93375 19.0531 5.8343 27.3887C4.28458 31.3864 3.28181 36.5749 2.91717 42.0186C2.46137 47.4623 1.82325 50.6094 1.09397 50.8646C-0.273436 51.2899 -0.364596 56.4784 0.911647 58.7749C1.73209 60.0508 2.91717 60.391 6.83706 60.391C11.6686 60.391 11.8509 60.306 13.6741 57.0738C14.6768 55.2025 16.7735 52.906 18.3232 51.8002C21.3315 49.8439 28.3509 48.7382 32.2708 49.6738C35.7348 50.4393 40.2017 54.437 42.1161 58.4347L43.8481 62.0922H78.2155H112.583L114.68 57.8393C115.774 55.5428 117.961 52.8209 119.602 51.8002C122.519 49.8439 129.539 48.7382 133.459 49.6738C137.014 50.5244 141.845 54.8623 143.486 58.7749L144.945 62.1772L149.776 61.9221L154.517 61.6669L154.79 58.0945L155.064 54.437H159.166H163.177V46.3566V38.2761H112.218H61.1685L60.8951 41.8485C60.7127 44.4853 60.1658 45.591 59.0719 45.7612C57.5221 46.0163 57.431 44.6554 57.431 26.6232C57.431 15.991 57.1575 6.37955 56.884 5.2738C56.3371 3.40254 56.1547 3.40254 38.7431 3.40254C21.5139 3.40254 21.0581 3.48759 18.5056 5.44392ZM46.036 16.5864V26.7933L32.1796 27.0485L18.2321 27.3037V25.0922C18.2321 23.391 17.7763 22.9658 16.0442 22.9658C12.3978 22.9658 12.3978 21.6048 15.9531 15.4807C21.6962 5.69909 21.3315 5.8692 34.6409 6.12438L46.036 6.37955V16.5864Z" fill="#484B4B"/>
<path d="M22.7899 53.6713C19.417 54.9471 17.5026 56.9034 16.3175 60.1356C14.9501 64.2184 15.9529 68.131 19.2346 71.2782C21.7871 73.7448 22.6987 74 27.2567 74C32.9998 74 35.7346 72.7241 37.8313 68.8966C42.8451 59.8805 32.9998 49.9287 22.7899 53.6713Z" fill="#484B4B"/>
<path d="M122.793 54.3517C117.506 57.5839 115.774 62.5172 118.053 67.8759C120.058 72.554 122.702 74 129.265 74C134.826 74 136.832 72.8943 139.384 68.3011C144.398 59.2 131.909 48.7379 122.793 54.3517Z" fill="#484B4B"/>
</svg>
