<svg width="185" height="72" viewBox="0 0 185 72" fill="none" xmlns="http://www.w3.org/2000/svg">
<path d="M50.2603 2.56562C36.2517 3.39321 27.8037 5.62769 20.532 10.3449C17.11 12.4967 16.2545 14.3173 13.9019 23.338C13.1534 26.2346 11.5493 29.2139 9.51755 31.1173C6.41639 34.0967 6.41639 34.2622 6.41639 44.607C6.41639 52.5518 5.98865 55.5311 4.81235 56.7725C2.88749 58.7587 2.67362 66.207 4.59848 68.1932C5.45397 69.1035 7.05801 69.6001 8.55512 69.3518C10.9077 69.1035 11.1216 68.7725 10.9077 64.9656C10.373 57.1863 17.5378 51.807 27.3759 52.3863C36.7863 52.8829 41.7054 57.1863 41.7054 64.8829V69.5173H72.717H103.729L103.194 66.3725C101.697 58.7587 112.177 51.1449 121.908 52.8829C129.714 54.207 134.74 59.2553 134.74 65.7932C134.74 68.5242 135.168 69.5173 136.344 69.5173C137.52 69.5173 137.948 68.5242 137.948 65.2966C137.948 57.7656 144.15 52.7173 153.454 52.7173C162.757 52.7173 168.96 57.7656 168.96 65.2966V69.6001L175.697 69.3518L182.327 69.1035V62.8967V56.6898L176.445 56.607C171.312 56.607 170.136 56.276 167.249 54.0415C163.827 51.3932 157.945 49.6553 152.385 49.6553C148.856 49.6553 140.622 52.3035 137.734 54.3725C135.916 55.6139 135.596 55.6139 133.35 54.0415C125.009 48.0829 113.246 48.2484 105.012 54.3725C102.018 56.607 101.483 56.6898 93.1418 56.4415L84.48 56.1104V30.1242V4.13803L82.1274 3.39321C78.4915 2.4001 60.6332 1.90355 50.2603 2.56562ZM36.1447 22.5104L36.4655 29.7104L27.0551 29.9587C21.9222 30.1242 17.217 29.9587 16.6823 29.6277C15.8268 29.1311 17.7517 17.2139 18.928 15.476C19.2488 15.1449 23.0985 14.8967 27.5898 15.0622L35.8239 15.3104L36.1447 22.5104Z" fill="#484B4B"/>
<path d="M18.0723 57.8483C14.1157 60.9103 13.6879 66.4552 17.2168 69.8483C19.1417 71.7517 20.1041 72 26.0925 72C31.6532 72 33.1503 71.669 34.9683 70.0966C38.0694 67.531 38.818 64.2207 37.0001 60.9103C34.9683 57.1862 31.4394 55.4483 25.8787 55.4483C22.1359 55.4483 20.6388 55.9448 18.0723 57.8483Z" fill="#484B4B"/>
<path d="M113.353 56.8552C110.893 57.8483 109.182 59.3379 108.113 61.4897C106.829 64.2207 106.829 64.9655 108.433 68.2759L110.358 72H118.699C128.431 72 129.5 71.4207 130.249 65.4621C130.676 61.9862 130.355 61.1586 127.682 58.8414C123.725 55.531 118.592 54.7862 113.353 56.8552Z" fill="#484B4B"/>
<path d="M149.177 56.1931C142.547 58.4276 139.766 65.2138 143.616 69.7655C145.327 71.8345 145.968 72 153.454 72C160.405 72 161.581 71.7517 162.971 70.1793C165.752 67.1172 165.217 61.6552 161.795 58.7586C158.587 56.0276 153.026 54.869 149.177 56.1931Z" fill="#484B4B"/>
</svg>
