<svg width="1000" height="1000" viewBox="0 0 1000 1000" fill="none" xmlns="http://www.w3.org/2000/svg">
<g clip-path="url(#clip0_121_41)">
<mask id="mask0_121_41" style="mask-type:alpha" maskUnits="userSpaceOnUse" x="212" y="151" width="673" height="800">
<path d="M212.264 951L345.076 151H884.139L860.701 290.453H490.779L459.529 481.078H801.717L778.279 620.531H436.092L404.842 811.547H776.326L752.889 951H212.264Z" fill="#DE2626"/>
</mask>
<g mask="url(#mask0_121_41)">
<rect x="676.902" y="-32" width="735.68" height="5" transform="rotate(45 676.902 -32)" fill="white"/>
<rect x="439.314" y="205.588" width="735.68" height="5" transform="rotate(45 439.314 205.588)" fill="white"/>
<rect x="558.108" y="86.7939" width="735.68" height="5" transform="rotate(45 558.108 86.7939)" fill="white"/>
<rect x="320.521" y="324.382" width="735.68" height="5" transform="rotate(45 320.521 324.382)" fill="white"/>
<rect x="122.53" y="522.372" width="735.68" height="5" transform="rotate(45 122.53 522.372)" fill="white"/>
<rect x="617.506" y="27.397" width="735.68" height="5" transform="rotate(45 617.506 27.397)" fill="white"/>
<rect x="379.918" y="264.985" width="735.68" height="5" transform="rotate(45 379.918 264.985)" fill="white"/>
<rect x="181.928" y="462.975" width="735.68" height="5" transform="rotate(45 181.928 462.975)" fill="white"/>
<rect x="498.712" y="146.191" width="735.68" height="5" transform="rotate(45 498.712 146.191)" fill="white"/>
<rect x="261.124" y="383.779" width="735.68" height="5" transform="rotate(45 261.124 383.779)" fill="white"/>
<rect x="63.1338" y="581.769" width="735.68" height="5" transform="rotate(45 63.1338 581.769)" fill="white"/>
<rect x="657.104" y="-12.2009" width="735.68" height="5" transform="rotate(45 657.104 -12.2009)" fill="white"/>
<rect x="419.516" y="225.387" width="735.68" height="5" transform="rotate(45 419.516 225.387)" fill="white"/>
<rect x="538.31" y="106.593" width="735.68" height="5" transform="rotate(45 538.31 106.593)" fill="white"/>
<rect x="300.722" y="344.181" width="735.68" height="5" transform="rotate(45 300.722 344.181)" fill="white"/>
<rect x="102.731" y="542.171" width="735.68" height="5" transform="rotate(45 102.731 542.171)" fill="white"/>
<rect x="597.706" y="47.196" width="735.68" height="5" transform="rotate(45 597.706 47.196)" fill="white"/>
<rect x="360.118" y="284.784" width="735.68" height="5" transform="rotate(45 360.118 284.784)" fill="white"/>
<rect x="162.129" y="482.774" width="735.68" height="5" transform="rotate(45 162.129 482.774)" fill="white"/>
<rect x="478.912" y="165.99" width="735.68" height="5" transform="rotate(45 478.912 165.99)" fill="white"/>
<rect x="241.324" y="403.578" width="735.68" height="5" transform="rotate(45 241.324 403.578)" fill="white"/>
<rect x="43.335" y="601.568" width="735.68" height="5" transform="rotate(45 43.335 601.568)" fill="white"/>
<rect x="637.305" y="7.5979" width="735.68" height="5" transform="rotate(45 637.305 7.5979)" fill="white"/>
<rect x="399.717" y="245.186" width="735.68" height="5" transform="rotate(45 399.717 245.186)" fill="white"/>
<rect x="201.727" y="443.176" width="735.68" height="5" transform="rotate(45 201.727 443.176)" fill="white"/>
<rect x="518.511" y="126.392" width="735.68" height="5" transform="rotate(45 518.511 126.392)" fill="white"/>
<rect x="280.923" y="363.98" width="735.68" height="5" transform="rotate(45 280.923 363.98)" fill="white"/>
<rect x="82.9326" y="561.97" width="735.68" height="5" transform="rotate(45 82.9326 561.97)" fill="white"/>
<rect x="577.907" y="66.9949" width="735.68" height="5" transform="rotate(45 577.907 66.9949)" fill="white"/>
<rect x="340.319" y="304.583" width="735.68" height="5" transform="rotate(45 340.319 304.583)" fill="white"/>
<rect x="142.33" y="502.573" width="735.68" height="5" transform="rotate(45 142.33 502.573)" fill="white"/>
<rect x="459.113" y="185.789" width="735.68" height="5" transform="rotate(45 459.113 185.789)" fill="white"/>
<rect x="221.525" y="423.377" width="735.68" height="5" transform="rotate(45 221.525 423.377)" fill="white"/>
<rect x="23.5361" y="621.367" width="735.68" height="5" transform="rotate(45 23.5361 621.367)" fill="white"/>
</g>
<path d="M211.103 864L331.842 136.727H821.899L800.592 263.503H464.299L435.89 436.798H746.97L725.663 563.574H414.583L386.174 737.224H723.887L702.581 864H211.103Z" fill="white"/>
</g>
<defs>
<clipPath id="clip0_121_41">
<rect width="1000" height="1000" fill="white"/>
</clipPath>
</defs>
</svg>
